# Blender v2.72 (sub 0) OBJ File: ''
# www.blender.org
o Икосфера_Икосфера.001
v 0.182571 -0.917262 0.353974
v 0.942282 -0.194964 0.272202
v 0.175774 -0.073746 0.981664
v -0.720815 -0.417518 0.553267
v -0.508416 -0.751204 -0.420959
v 0.519433 -0.613652 -0.594659
v 0.508416 0.751204 0.420959
v -0.519433 0.613652 0.594659
v -0.942282 0.194964 -0.272202
v -0.175774 0.073746 -0.981664
v 0.720815 0.417518 -0.553267
v -0.182571 0.917262 -0.353974
v 0.210630 -0.582502 0.785065
v 0.661169 -0.653751 0.368056
v 0.657176 -0.157944 0.737003
v 0.859171 -0.475291 -0.189535
v 0.412626 -0.899848 -0.141468
v -0.316371 -0.784564 0.533263
v -0.320370 -0.288759 0.902209
v -0.191524 -0.980698 -0.039370
v -0.722525 -0.686957 0.077771
v 0.006476 -0.802241 -0.596965
v 0.977545 0.130816 -0.165208
v 0.729001 -0.115282 -0.674735
v 0.402157 0.398200 0.824443
v 0.852703 0.326951 0.407432
v -0.729001 0.115282 0.674735
v -0.201999 0.317351 0.926544
v -0.852703 -0.326951 -0.407432
v -0.977545 -0.130816 0.165208
v 0.201999 -0.317351 -0.926544
v -0.402157 -0.398200 -0.824443
v 0.722525 0.686957 -0.077771
v -0.006476 0.802241 0.596965
v -0.859171 0.475291 0.189535
v -0.657176 0.157944 -0.737003
v 0.320370 0.288759 -0.902209
v 0.191524 0.980698 0.039370
v 0.316371 0.784564 -0.533263
v -0.412626 0.899848 0.141468
v -0.661169 0.653751 -0.368056
v -0.210630 0.582501 -0.785065
vt 0.500947 0.898256
vt 0.294753 0.790601
vt 0.503576 0.686201
vt 0.132948 0.623459
vt -0.022202 0.881201
vt 0.709743 0.796187
vt 0.698282 1.125723
vt 0.298034 1.120332
vt -0.141169 0.498872
vt 0.505788 0.507802
vt 0.335438 0.560646
vt 0.402720 0.362060
vt 0.875639 0.633458
vt 0.674774 0.565214
vt 0.842879 0.403234
vt 0.155194 0.327230
vt 0.091381 0.355789
vt 0.120828 0.285016
vt 0.259743 0.305543
vt 0.209294 0.324866
vt 0.222916 0.272248
vt 0.171408 0.394191
vt 0.612440 0.364884
vt 1.152751 0.516294
vt 0.175147 0.282157
vt 0.273770 0.253291
vt 0.280206 0.188821
vt -0.013023 0.120646
vt 0.313708 -0.110255
vt 0.739214 0.195002
vt 0.510170 0.154785
vt 0.713139 -0.104876
vt 0.101419 0.234225
vt 0.054040 0.182069
vt 0.130629 0.188813
vt 0.191934 0.244238
vt 0.150578 0.239663
vt 0.183162 0.203492
vt 0.270583 0.199136
vt 0.227869 0.223631
vt 0.225152 0.169206
vt 0.329870 0.306318
vt 0.267684 0.375350
vt 0.176705 0.394222
vt 1.024345 0.895294
vt 0.339304 0.213721
vt 0.044586 0.274855
vt 0.292413 0.132622
vt 1.034031 0.134745
vt 0.207263 0.094267
vt 0.172734 0.155060
vt 0.116099 0.113178
vn 0.182600 -0.917200 0.354000
vn 0.661200 -0.653700 0.368100
vn 0.210600 -0.582500 0.785100
vn 0.942300 -0.195000 0.272200
vn 0.859200 -0.475300 -0.189500
vn -0.316400 -0.784500 0.533200
vn -0.191500 -0.980700 -0.039400
vn 0.412600 -0.899800 -0.141500
vn 0.977500 0.130800 -0.165200
vn 0.175800 -0.073700 0.981700
vn 0.657200 -0.157900 0.737000
vn 0.402100 0.398200 0.824400
vn -0.720800 -0.417500 0.553200
vn -0.320400 -0.288700 0.902200
vn -0.729000 0.115300 0.674700
vn -0.508400 -0.751200 -0.420900
vn -0.722500 -0.686900 0.077800
vn -0.852700 -0.326900 -0.407400
vn 0.519400 -0.613600 -0.594700
vn 0.006500 -0.802200 -0.596900
vn 0.202000 -0.317300 -0.926500
vn 0.852700 0.326900 0.407400
vn -0.202000 0.317300 0.926500
vn -0.977500 -0.130800 0.165200
vn -0.402100 -0.398200 -0.824400
vn 0.729000 -0.115300 -0.674700
vn 0.508400 0.751200 0.420900
vn 0.722500 0.686900 -0.077800
vn 0.191500 0.980700 0.039400
vn -0.519400 0.613600 0.594700
vn -0.006500 0.802200 0.596900
vn -0.412600 0.899800 0.141500
vn -0.942300 0.195000 -0.272200
vn -0.859200 0.475300 0.189500
vn -0.661200 0.653700 -0.368100
vn -0.175800 0.073700 -0.981700
vn -0.657200 0.157900 -0.737000
vn -0.210600 0.582500 -0.785100
vn 0.720800 0.417500 -0.553200
vn 0.320400 0.288700 -0.902200
vn 0.316400 0.784500 -0.533200
vn -0.182600 0.917200 -0.354000
s 1
f 1/1/1 14/2/2 13/3/3
f 2/4/4 14/2/2 16/5/5
f 1/1/1 13/3/3 18/6/6
f 1/1/1 18/6/6 20/7/7
f 1/1/1 20/7/7 17/8/8
f 2/4/4 16/5/5 23/9/9
f 3/10/10 15/11/11 25/12/12
f 4/13/13 19/14/14 27/15/15
f 5/16/16 21/17/17 29/18/18
f 6/19/19 22/20/20 31/21/21
f 2/4/4 23/9/9 26/22/22
f 3/10/10 25/12/12 28/23/23
f 4/13/13 27/15/15 30/24/24
f 5/16/16 29/18/18 32/25/25
f 6/19/19 31/21/21 24/26/26
f 7/27/27 33/28/28 38/29/29
f 8/30/30 34/31/31 40/32/32
f 9/33/33 35/34/34 41/35/35
f 10/36/36 36/37/37 42/38/38
f 11/39/39 37/40/40 39/41/41
f 13/3/3 15/11/11 3/10/10
f 13/3/3 14/2/2 15/11/11
f 14/2/2 2/4/4 15/11/11
f 16/42/5 17/43/8 6/19/19
f 16/5/5 14/2/2 17/8/8
f 14/2/2 1/1/1 17/8/8
f 18/6/6 19/14/14 4/13/13
f 18/6/6 13/3/3 19/14/14
f 13/3/3 3/10/10 19/14/14
f 20/44/7 21/17/17 5/16/16
f 20/7/7 18/6/6 21/45/17
f 18/6/6 4/13/13 21/45/17
f 17/43/8 22/20/20 6/19/19
f 17/43/8 20/44/7 22/20/20
f 20/44/7 5/16/16 22/20/20
f 23/46/9 24/26/26 11/39/39
f 23/46/9 16/42/5 24/26/26
f 16/42/5 6/19/19 24/26/26
f 25/12/12 26/22/22 7/27/27
f 25/12/12 15/11/11 26/22/22
f 15/11/11 2/4/4 26/22/22
f 27/15/15 28/23/23 8/30/30
f 27/15/15 19/14/14 28/23/23
f 19/14/14 3/10/10 28/23/23
f 29/18/18 30/47/24 9/33/33
f 29/18/18 21/17/17 30/47/24
f 21/45/17 4/13/13 30/24/24
f 31/21/21 32/25/25 10/36/36
f 31/21/21 22/20/20 32/25/25
f 22/20/20 5/16/16 32/25/25
f 26/22/22 33/28/28 7/27/27
f 26/22/22 23/9/9 33/28/28
f 23/46/9 11/39/39 33/48/28
f 28/23/23 34/31/31 8/30/30
f 28/23/23 25/12/12 34/31/31
f 25/12/12 7/27/27 34/31/31
f 30/47/24 35/34/34 9/33/33
f 30/24/24 27/15/15 35/49/34
f 27/15/15 8/30/30 35/49/34
f 32/25/25 36/37/37 10/36/36
f 32/25/25 29/18/18 36/37/37
f 29/18/18 9/33/33 36/37/37
f 24/26/26 37/40/40 11/39/39
f 24/26/26 31/21/21 37/40/40
f 31/21/21 10/36/36 37/40/40
f 38/50/29 39/41/41 12/51/42
f 38/50/29 33/48/28 39/41/41
f 33/48/28 11/39/39 39/41/41
f 40/52/32 38/50/29 12/51/42
f 40/32/32 34/31/31 38/29/29
f 34/31/31 7/27/27 38/29/29
f 41/35/35 40/52/32 12/51/42
f 41/35/35 35/34/34 40/52/32
f 35/49/34 8/30/30 40/32/32
f 42/38/38 41/35/35 12/51/42
f 42/38/38 36/37/37 41/35/35
f 36/37/37 9/33/33 41/35/35
f 39/41/41 42/38/38 12/51/42
f 39/41/41 37/40/40 42/38/38
f 37/40/40 10/36/36 42/38/38
